<svg width="200" height="72" viewBox="0 0 200 72" fill="none" xmlns="http://www.w3.org/2000/svg">
<path d="M15.3634 18.2829V23.0045H4.88506V28.4071H9.08003C17.4609 28.4071 17.7878 35.1536 17.7878 36.5065C17.7878 41.3008 14.2375 44.5696 9.08003 44.5696H0V18.2375L15.3634 18.2829ZM4.88506 39.848H9.10728C11.7677 39.848 12.9118 38.1772 12.9118 36.5065C12.9118 35.2626 12.1672 33.1287 9.10728 33.1287H4.88506V39.848Z" fill="black"/>
<path d="M100.607 18.2829V28.4071H104.511C111.012 28.4071 113.219 32.5658 113.219 36.5065C113.219 41.3008 109.587 44.5696 104.511 44.5696H95.7399V18.2375L100.607 18.2829ZM100.607 39.848H104.547C106.781 39.848 108.352 38.604 108.352 36.5065C108.352 34.409 106.79 33.1287 104.547 33.1287H100.607V39.848Z" fill="black"/>
<path d="M121.218 18.2829V39.848H129.254V18.2829H134.13V39.848H142.166V18.2829H147.033V44.615H116.352V18.2829H121.218Z" fill="black"/>
<path d="M178.259 31.567C178.281 34.312 177.487 37.0016 175.977 39.2945C174.468 41.5874 172.311 43.3804 169.782 44.4458C167.252 45.5113 164.462 45.8013 161.767 45.279C159.072 44.7567 156.593 43.4457 154.644 41.5123C152.696 39.5789 151.365 37.1102 150.822 34.4195C150.278 31.7287 150.546 28.9371 151.592 26.3989C152.637 23.8607 154.413 21.6902 156.694 20.1628C158.975 18.6354 161.658 17.8199 164.403 17.8198C166.222 17.7882 168.029 18.1214 169.717 18.7997C171.406 19.478 172.941 20.4876 174.233 21.769C175.524 23.0505 176.546 24.5777 177.237 26.2605C177.929 27.9433 178.276 29.7477 178.259 31.567V31.567ZM173.401 31.4944C173.394 29.7196 172.862 27.9866 171.871 26.5139C170.881 25.0412 169.477 23.8947 167.835 23.2188C166.194 22.543 164.39 22.368 162.65 22.716C160.909 23.064 159.311 23.9194 158.056 25.1744C156.801 26.4294 155.946 28.0278 155.598 29.7681C155.25 31.5085 155.424 33.3129 156.1 34.954C156.776 36.595 157.923 37.9993 159.395 38.9898C160.868 39.9803 162.601 40.5127 164.376 40.5199C165.568 40.5434 166.752 40.3259 167.857 39.8807C168.963 39.4354 169.967 38.7715 170.81 37.9286C171.653 37.0858 172.317 36.0815 172.762 34.9758C173.207 33.8702 173.425 32.6861 173.401 31.4944V31.4944Z" fill="black"/>
<path d="M181.764 18.2829H195.874V23.0045H186.631V29.0791H195.475V33.8098H186.631V39.848H195.874V44.5696H181.764V18.2829Z" fill="black"/>
<path d="M66.5748 8.9123C63.6601 6.18829 54.008 4 46.4534 4C38.8989 4 27.1493 8.6399 24.961 10.8282C24.1075 11.6817 23.7806 15.1957 23.7806 16.14C23.7806 17.0843 23.7806 23.7582 23.7806 23.7582C23.7806 23.7582 23.8442 27.1268 23.717 28.4616C23.5899 29.7964 22.1734 31.4943 21.5378 31.4943C21.3389 31.5043 21.1402 31.4714 20.9551 31.3978C20.77 31.3243 20.6029 31.2118 20.4651 31.0679C20.3273 30.9241 20.2221 30.7524 20.1565 30.5643C20.0909 30.3763 20.0665 30.1763 20.085 29.978C20.1486 28.6705 21.6468 27.9531 21.5741 27.826C21.1282 27.7589 20.6724 27.8137 20.2551 27.9848C19.8379 28.1558 19.4747 28.4367 19.2043 28.7976C18.949 29.1925 18.782 29.6379 18.7146 30.1033C18.6473 30.5687 18.6811 31.0432 18.8138 31.4943C19.0869 32.086 19.5438 32.5735 20.1165 32.8844C20.6892 33.1953 21.3469 33.3128 21.9918 33.2196C22.7997 33.0728 23.5474 32.6942 24.1438 32.13C24.507 31.8848 24.8157 31.9756 24.9065 32.13C25.2419 34.5668 25.9429 36.9392 26.9858 39.167C28.1946 41.1466 29.5643 43.0235 31.0809 44.7784C31.5077 45.2324 54.5074 45.0508 55.2066 44.7149C56.6285 43.5151 57.8035 42.0502 58.6661 40.4019C59.7285 38.3679 60.7908 33.1378 60.8816 31.9393C60.9724 30.7407 61.0632 27.935 61.1268 27.5718C61.2267 26.9634 61.6988 26.9634 62.4343 27.6626C63.1698 28.3617 63.6147 29.5785 63.6147 32.2026C63.6147 34.8267 62.0983 38.4497 61.3719 39.8207C60.648 41.0137 60.3295 42.4089 60.4639 43.7978C60.7091 44.8329 61.7805 44.7694 62.0257 44.7694C62.2709 44.7694 63.0154 44.6332 63.1335 44.3789C63.4396 43.4711 63.8004 42.5827 64.214 41.7185C64.8224 40.5562 66.7292 38.0138 68.3726 34.7359C70.0161 31.458 70.6154 28.5706 70.8878 23.2043C71.1602 17.838 69.4895 11.6363 66.5748 8.9123ZM44.8644 4.85352C45.6816 4.62652 48.6871 4.39952 49.0049 4.76272C49.125 4.91988 49.1952 5.10941 49.2066 5.30686C49.2179 5.50431 49.1698 5.70063 49.0685 5.87049C48.9323 6.18829 46.3445 6.07933 45.155 6.07933C43.9655 6.07933 44.4104 4.98064 44.8644 4.85352ZM35.3213 7.65925C35.7753 7.05089 36.4836 6.90561 37.4733 6.50609C37.9112 6.30306 38.389 6.20068 38.8716 6.20645C39.2076 6.30633 39.1985 6.52425 39.1713 6.78757C39.1259 7.24157 38.1089 7.55029 37.437 7.8227C36.765 8.0951 35.621 8.79426 35.403 8.3675C35.3304 8.21314 35.2214 7.78638 35.3213 7.65925ZM27.3763 12.4263C27.2528 12.3447 27.1486 12.2371 27.071 12.1111C26.9934 11.9851 26.9443 11.8436 26.927 11.6966C26.9097 11.5497 26.9247 11.4007 26.9709 11.2601C27.0172 11.1195 27.0935 10.9907 27.1947 10.8827C27.7849 10.3833 29.837 9.23918 30.4726 9.38446C30.8539 9.46618 30.8812 10.6103 30.5634 10.9371C29.5861 11.5982 28.5104 12.1008 27.3763 12.4263V12.4263ZM35.3395 43.4255C34.2192 43.7633 33.0482 43.9016 31.88 43.8341C31.4532 43.7161 31.6076 42.9261 31.9708 42.7899C32.7706 42.4772 33.6286 42.341 34.486 42.3904C35.1579 42.5084 35.6664 43.144 35.3486 43.4618L35.3395 43.4255ZM43.8566 42.9715C42.6926 43.1025 41.5186 43.1177 40.3517 43.0169C39.9249 42.8989 39.9885 42.0181 40.3517 41.8365C41.4016 41.635 42.4755 41.5891 43.5388 41.7003C44.2379 41.8183 44.2379 42.7354 43.8566 43.0078V42.9715ZM43.1846 35.4623H43.0666C41.2126 35.2794 39.4321 34.6433 37.8819 33.61C35.9197 32.294 34.1345 30.7315 32.5701 28.961C30.8618 26.5833 29.9698 23.7162 30.0277 20.789C30.0277 19.2 30.4181 14.7144 31.9889 12.9892C33.4327 11.4093 43.4934 8.44922 44.6284 8.14958C44.7211 8.12309 44.8205 8.13451 44.9048 8.18134C44.9891 8.22817 45.0513 8.30656 45.0778 8.39928C45.1043 8.49199 45.0929 8.59143 45.0461 8.67572C44.9992 8.76001 44.9208 8.82225 44.8281 8.84874C41.7772 9.75674 33.6234 12.2719 32.5247 13.4796C31.2716 14.8597 30.7722 18.7006 30.7087 20.7981C30.6528 23.5383 31.4841 26.2232 33.0786 28.4525C34.5958 30.1809 36.3292 31.7067 38.236 32.9926C39.3438 33.728 41.6592 34.8086 43.0757 34.7541C45.155 34.6814 47.6157 29.4786 48.3966 27.4901C48.4315 27.3997 48.5009 27.327 48.5894 27.2878C48.6779 27.2487 48.7784 27.2463 48.8687 27.2812C48.959 27.3161 49.0318 27.3855 49.0709 27.474C49.1101 27.5626 49.1125 27.6631 49.0776 27.7534C48.8597 28.5343 46.1266 35.3988 43.1937 35.4896L43.1846 35.4623ZM52.6914 43.7978C51.515 43.7757 50.3425 43.6542 49.1865 43.4346C48.7598 43.3166 48.8687 42.2996 49.3681 42.0726C50.4504 41.8691 51.5676 41.9633 52.6006 42.345C53.2362 42.5992 53.0546 43.5526 52.6914 43.825V43.7978ZM54.8616 15.4772C53.9535 15.5861 53.1636 15.3046 53.1091 14.8416C53.0546 14.3785 53.7447 13.9336 54.6527 13.8064C55.5607 13.6793 56.3507 13.979 56.4052 14.442C56.4596 14.9051 55.7786 15.3954 54.8706 15.5044L54.8616 15.4772ZM56.6776 7.48673C55.3489 7.31424 54.0448 6.9882 52.7913 6.51517C52.5189 6.24277 52.864 5.48913 53.1999 5.42557C53.9747 5.42913 54.745 5.54223 55.4881 5.76153C56.5232 5.97037 57.6128 6.33357 57.6128 6.79665C57.6128 7.25973 57.1679 7.51397 56.7139 7.51397L56.6776 7.48673ZM65.4761 10.3106C64.6958 10.1868 63.9573 9.87516 63.3241 9.40262C62.3707 8.85782 61.7715 8.43106 61.835 7.97706C61.835 7.79546 61.9985 7.47765 62.1619 7.45949C62.8115 7.53813 63.4336 7.76828 63.9779 8.13142C64.4773 8.44922 65.9846 9.31182 66.0754 9.67502C66.1662 10.0382 65.8302 10.2471 65.5124 10.3379L65.4761 10.3106ZM69.1081 18.4827C68.6541 18.4827 68.3454 18.4009 68.2637 17.6291C68.2001 17.1116 68.0639 16.6394 67.9277 15.913C67.8278 15.3864 67.9277 15.232 68.1093 15.1412C68.5452 14.9233 68.863 15.0322 69.0173 15.2592C69.3615 15.9667 69.5797 16.7287 69.662 17.5111C69.662 17.9197 69.5803 18.5281 69.1263 18.5281L69.1081 18.4827Z" fill="#EE3124"/>
<path d="M144.536 49.5636V67.8145H142.103V49.5636H144.536Z" fill="black"/>
<path d="M149.457 49.5636V63.1837L158.646 49.5636H161.37V67.8145H158.701V54.5213L149.566 67.8145H146.797V49.5636H149.457Z" fill="black"/>
<path d="M163.64 49.5636H166.074V58.3622H174.246V49.5636H176.679V67.8145H174.246V60.496H166.074V67.8145H163.64V49.5636Z" fill="black"/>
<path d="M197.999 58.5892C198.015 59.8581 197.776 61.1173 197.294 62.2913C196.812 63.4654 196.099 64.5302 195.196 65.422C194.293 66.3138 193.219 67.0143 192.039 67.4816C190.86 67.9488 189.598 68.1732 188.329 68.1414C182.944 68.1414 178.622 64.1825 178.622 58.7345C178.607 57.4683 178.848 56.2122 179.331 55.0416C179.814 53.871 180.528 52.8102 181.432 51.9229C182.335 51.0357 183.409 50.3403 184.588 49.8787C185.767 49.417 187.027 49.1987 188.293 49.2367C193.777 49.2367 197.999 53.1684 197.999 58.5892ZM195.566 58.5892C195.589 57.6395 195.417 56.6953 195.061 55.8146C194.705 54.9338 194.173 54.1354 193.496 53.4684C192.82 52.8014 192.014 52.28 191.128 51.9364C190.243 51.5928 189.296 51.4342 188.347 51.4704C186.922 51.4759 185.531 51.9047 184.35 52.7022C183.169 53.4998 182.252 54.6302 181.714 55.95C181.177 57.2698 181.044 58.7195 181.332 60.1151C181.62 61.5107 182.316 62.7893 183.332 63.7886C184.348 64.7879 185.638 65.4628 187.038 65.7278C188.438 65.9927 189.885 65.8357 191.196 65.2767C192.507 64.7176 193.622 63.7818 194.4 62.5879C195.178 61.394 195.584 59.9959 195.566 58.571V58.5892Z" fill="black"/>
<path d="M141.058 60.3053V58.344L133.731 49.5636H130.535L138.607 59.3973L138.643 59.4881L131.633 67.8145H134.866L141.058 60.3053Z" fill="#EE3124"/>
<path d="M77.1075 40.7197L72.6856 36.6791L78.3333 36.9515L80.3128 29.9871L82.2922 36.9515L88.7391 36.6791L83.518 40.7197L84.9254 44.5696H93.2518L82.837 18.2829H78.5785L68.1637 44.5696H75.691L77.1075 40.7197Z" fill="black"/>
</svg>
